# xmcd
#
# Track frame offsets:
#	150
#	9849
#	22306
#	36136
#	46987
#	60902
#	70387
#	81518
#	93331
#	105635
#	130339
#	140232
#
# Disc length: 2005 seconds
#
# Revision: 1
# Processed by: cddbd v1.5.2PL0 Copyright (c) Steve Scherf et al.
# Submitted via: audiograbber 1.83.01
#
DISCID=a407d30c
DTITLE=Charley Pride - Country
DYEAR=1966
DGENRE=Country
TTITLE0=Busted - (H.Howard)
TTITLE1=Distant Drums - (C.Walker)
TTITLE2=Detroit City - (M.Tillis - D.Dill)
TTITLE3=Yonder Comes A Sucker - (J.Reeves)
TTITLE4=Green Green Grass Of Home - (C.Putman)
TTITLE5=That's The Chance I'll Have To Take - (J.King)
TTITLE6=Before I Met You- (C.L.Seitz-J.Lewis - E.Rader)
TTITLE7=Folsom Prison Blues - (J.Cash)
TTITLE8=Snakes Crawl At Night - (M.Tillis - F.Burch)
TTITLE9=Miller's Cave - (J.Clement)
TTITLE10=Atlantic Coastal Line - (M.Tillis - F.Burch)
TTITLE11=Got Leavin' On Her Mind - (J.Clement)
EXTD=
EXTT0=
EXTT1=
EXTT2=
EXTT3=
EXTT4=
EXTT5=
EXTT6=
EXTT7=
EXTT8=
EXTT9=
EXTT10=
EXTT11=
PLAYORDER=
